<svg xmlns="http://www.w3.org/2000/svg" xmlns:xlink="http://www.w3.org/1999/xlink" viewBox="0 0 236.6 224.56"><defs><style>.cls-1{fill:#0091cf;}.cls-2{fill:#00aeea;}.cls-3{fill:#596572;}.cls-4{fill:none;stroke:#c6c6c6;stroke-width:2px;}.cls-5{fill:#90bee0;}.cls-10,.cls-12,.cls-14,.cls-6,.cls-8{fill:#fff;}.cls-6{stroke:#217cbd;}.cls-10,.cls-12,.cls-6,.cls-8{stroke-width:1.67px;}.cls-7{fill:#ee8cab;}.cls-8{stroke:#e02351;}.cls-9{fill:#faeba0;}.cls-10{stroke:#f9d92d;}.cls-11{fill:#9bceac;}.cls-12{stroke:#27a857;}.cls-13{fill:url(#linear-gradient);}</style><linearGradient id="linear-gradient" x1="186.43" y1="183.09" x2="186.43" y2="99.28" gradientUnits="userSpaceOnUse"><stop offset="0.1" stop-color="#ae0f0a"/><stop offset="0.62" stop-color="#e30613"/></linearGradient></defs><g id="Calque_2" data-name="Calque 2"><g id="Ebene_1" data-name="Ebene 1"><path class="cls-1" d="M175.77,66.59a60.52,60.52,0,0,0-32.64,9.51A61.2,61.2,0,0,0,24,94.72a50.54,50.54,0,0,0,26.55,93.54H175.77a60.84,60.84,0,0,0,0-121.67Z"/><path class="cls-2" d="M50.54,184.31A46.59,46.59,0,0,1,26.07,98.08l1.84-1.14,0-2.15A57.25,57.25,0,0,1,139.39,77.37L141,82.14l4.24-2.71a56.88,56.88,0,1,1,30.52,104.88Z"/><path class="cls-3" d="M145.16,70.33a64.62,64.62,0,0,1,30.61-7.69c1,0,2.07,0,3.09.08V34.79H108.09A65.17,65.17,0,0,1,145.16,70.33Z"/><path class="cls-3" d="M53.66,38.88V23.82a17,17,0,0,1,17-17h95.27a17,17,0,0,1,17,17V63.05a63,63,0,0,1,6.8,1.13V23.82A23.84,23.84,0,0,0,165.94,0H70.67A23.85,23.85,0,0,0,46.85,23.82V43.25A66.23,66.23,0,0,1,53.66,38.88Z"/><path class="cls-3" d="M53.66,38.88V23.82a17,17,0,0,1,17-17h95.27a17,17,0,0,1,17,17V63.05a63,63,0,0,1,6.8,1.13V23.82A23.84,23.84,0,0,0,165.94,0H70.67A23.85,23.85,0,0,0,46.85,23.82V43.25A66.23,66.23,0,0,1,53.66,38.88Z"/><path class="cls-3" d="M183,191.81v8.93a17,17,0,0,1-17,17H70.67a17,17,0,0,1-17-17v-8.52H50.54c-1.24,0-2.47-.06-3.69-.14v8.66a23.85,23.85,0,0,0,23.82,23.82h95.27a23.84,23.84,0,0,0,23.81-23.82V190.68A65.59,65.59,0,0,1,183,191.81Z"/><path class="cls-3" d="M183,191.81v8.93a17,17,0,0,1-17,17H70.67a17,17,0,0,1-17-17v-8.52H50.54c-1.24,0-2.47-.06-3.69-.14v8.66a23.85,23.85,0,0,0,23.82,23.82h95.27a23.84,23.84,0,0,0,23.81-23.82V190.68A65.59,65.59,0,0,1,183,191.81Z"/><path class="cls-3" d="M165.94,11.55H70.67A12.94,12.94,0,0,0,57.74,24.47v6.4H178.86v-6.4A12.94,12.94,0,0,0,165.94,11.55ZM117.59,24.36a2.77,2.77,0,1,1,2.76-2.77A2.77,2.77,0,0,1,117.59,24.36Z"/><path class="cls-3" d="M57.74,191.91V201A12.94,12.94,0,0,0,70.67,214h95.27A12.94,12.94,0,0,0,178.86,201v-9.12Zm60.56,17.94a6.91,6.91,0,1,1,6.91-6.91A6.92,6.92,0,0,1,118.3,209.85Z"/><polyline id="Analytics_Line" data-name="Analytics Line" class="cls-4" points="185.4 70.33 156.04 85.92 133.33 133.08 87.72 125.47 59.21 164.59 23.84 177.09"/><path id="Blue_Dot_Bottom" data-name="Blue Dot Bottom" class="cls-5" d="M71.7,164.59A12.49,12.49,0,1,1,59.21,152.1,12.49,12.49,0,0,1,71.7,164.59Z"/><path id="Blue_Dot_Up" data-name="Blue Dot Up" class="cls-6" d="M65.81,164.59a6.61,6.61,0,1,1-6.6-6.6A6.6,6.6,0,0,1,65.81,164.59Z"/><path id="Red_Dot_Bottom" data-name="Red Dot Bottom" class="cls-7" d="M100.21,125.48A12.49,12.49,0,1,1,87.72,113,12.49,12.49,0,0,1,100.21,125.48Z"/><path id="Red_Dot_Up" data-name="Red Dot Up" class="cls-8" d="M94.32,125.48a6.61,6.61,0,1,1-6.6-6.61A6.6,6.6,0,0,1,94.32,125.48Z"/><path id="Yellow_Dot_Bottom" data-name="Yellow Dot Bottom" class="cls-9" d="M145.82,133.08a12.49,12.49,0,1,1-12.49-12.48A12.49,12.49,0,0,1,145.82,133.08Z"/><path id="Yellow_Dot_Up" data-name="Yellow Dot Up" class="cls-10" d="M139.94,133.08a6.61,6.61,0,1,1-6.61-6.6A6.61,6.61,0,0,1,139.94,133.08Z"/><path id="Green_Dot_Bottom" data-name="Green Dot Bottom" class="cls-11" d="M168.53,85.92A12.49,12.49,0,1,1,156,73.43,12.49,12.49,0,0,1,168.53,85.92Z"/><path id="Green_Dot_Up" data-name="Green Dot Up" class="cls-12" d="M162.64,85.92a6.6,6.6,0,1,1-6.6-6.61A6.59,6.59,0,0,1,162.64,85.92Z"/><path class="cls-13" d="M186.48,99.28h-.09A24.75,24.75,0,0,0,161.64,124c0,21,24.75,59.06,24.75,59.06h.09s24.75-38,24.75-59.06A24.75,24.75,0,0,0,186.48,99.28Zm0,37.44A12.75,12.75,0,1,1,199.23,124,12.78,12.78,0,0,1,186.44,136.72Z"/><path class="cls-14" d="M186.44,115.19a8.79,8.79,0,1,0,8.82,8.79A8.82,8.82,0,0,0,186.44,115.19Z"/></g></g></svg>