<svg xmlns="http://www.w3.org/2000/svg" xmlns:xlink="http://www.w3.org/1999/xlink" viewBox="0 0 819.9 224.56"><defs><style>.cls-1,.cls-10,.cls-12,.cls-6,.cls-8{fill:#fff;}.cls-2{fill:#00aeea;}.cls-3{fill:#0091cf;}.cls-4{fill:none;stroke:#c6c6c6;stroke-width:2px;}.cls-5{fill:#90bee0;}.cls-6{stroke:#217cbd;}.cls-10,.cls-12,.cls-6,.cls-8{stroke-width:1.67px;}.cls-7{fill:#ee8cab;}.cls-8{stroke:#e02351;}.cls-9{fill:#faeba0;}.cls-10{stroke:#f9d92d;}.cls-11{fill:#9bceac;}.cls-12{stroke:#27a857;}.cls-13{fill:url(#linear-gradient);}</style><linearGradient id="linear-gradient" x1="186.43" y1="183.09" x2="186.43" y2="99.28" gradientUnits="userSpaceOnUse"><stop offset="0.1" stop-color="#ae0f0a"/><stop offset="0.62" stop-color="#e30613"/></linearGradient></defs><g id="Calque_2" data-name="Calque 2"><g id="Ebene_1" data-name="Ebene 1"><path class="cls-1" d="M262.09,190.88v-37.8h7.07v37.8Z"/><path class="cls-1" d="M303.08,190.88V177c0-4-2.22-7.13-6.43-7.13-4,0-6.8,3.4-6.8,7.45v13.61h-6.54V164.2h5.89l.43,3.62c2.7-2.64,5.4-4,8.75-4,6.26,0,11.29,4.69,11.29,13.07v14Z"/><path class="cls-1" d="M351.73,156.75v7.56h7.34V170h-7.39v11.5c0,2.54,1.4,3.79,3.45,3.79a7.61,7.61,0,0,0,3.19-.81l1.83,5.61a14.73,14.73,0,0,1-5.45,1.14c-5.78.21-9.56-3.08-9.56-9.73V170h-5v-5.67h5v-6.86Z"/><path class="cls-1" d="M378.67,153.08v14.8a9.85,9.85,0,0,1,8.32-4c7.56,0,10.91,5.13,10.91,13v14h-6.59v-14c0-4.87-2.54-6.92-6.05-6.92-3.88,0-6.59,3.3-6.59,7.29v13.61h-6.58v-37.8Z"/><path class="cls-1" d="M417.18,179.92c.43,3.29,3.29,5.67,7.94,5.67,2.42,0,5.61-.92,7.12-2.48l4.22,4.15c-2.81,2.92-7.4,4.32-11.45,4.32-9.18,0-14.64-5.67-14.64-14.2,0-8.1,5.51-13.93,14.15-13.93,8.91,0,14.47,5.51,13.45,16.47Zm14.47-5.45c-.43-3.46-3.13-5.19-6.91-5.19-3.57,0-6.48,1.73-7.45,5.19Z"/><path class="cls-1" d="M504,186.13a20,20,0,0,1-14.37,5.62c-14,0-20-9.67-20-19.5s6.37-19.93,20-19.93a19.53,19.53,0,0,1,13.88,5.78l-4.75,4.59a13,13,0,0,0-9.13-3.56c-9.13,0-13.07,6.8-13,13.12s3.67,12.8,13,12.8a13.92,13.92,0,0,0,9.5-3.83Z"/><path class="cls-1" d="M521.56,153.13v37.75H515V153.13Z"/><path class="cls-1" d="M561.9,177.6c0,7.67-5.24,13.88-13.88,13.88s-13.83-6.21-13.83-13.88,5.3-13.88,13.77-13.88A13.46,13.46,0,0,1,561.9,177.6Zm-21.12,0c0,4.05,2.43,7.83,7.24,7.83s7.23-3.78,7.23-7.83-2.8-7.89-7.23-7.89C543.27,169.71,540.78,173.6,540.78,177.6Z"/><path class="cls-1" d="M581.28,164.26v13.93c0,4.05,2.22,7.13,6.43,7.13,4,0,6.8-3.4,6.8-7.45V164.26h6.54v26.68h-5.89l-.43-3.62c-2.76,2.7-5.29,4-9,4-6.37,0-11-4.8-11-13.06v-14Z"/><path class="cls-1" d="M642.63,153.13v37.75h-6.16l-.43-3.67c-2.06,3.19-5.35,4.27-8.59,4.27-7.83,0-13.72-5.19-13.72-13.94,0-9.18,5.78-13.93,13.56-13.93,2.81,0,7.18,1.51,8.75,4.27V153.13Zm-22.31,24.41a7.64,7.64,0,1,0,15.28,0,7.59,7.59,0,0,0-7.72-7.77A7.34,7.34,0,0,0,620.32,177.54Z"/><path class="cls-1" d="M673.84,171.33a9,9,0,0,0-6.59-2.37c-3.13,0-4.86,1-4.86,2.64s1.56,2.7,5,2.92c5,.32,11.39,1.46,11.39,8.53,0,4.7-3.83,8.75-11.45,8.75-4.21,0-8.42-.7-12.31-4.75l3.24-4.7c1.89,2.11,6.21,3.67,9.18,3.73,2.48,0,4.81-1.25,4.81-3.19s-1.52-2.59-5.3-2.81c-5-.38-11-2.21-11-8.26s6.37-8.32,11.23-8.32c4.16,0,7.29.81,10.37,3.51Z"/><path class="cls-2" d="M314.11,69.61c-2.88-4.8-10.8-9.36-19.92-9.36-11.76,0-17.4,4.92-17.4,11.16,0,7.32,8.64,9.36,18.72,10.56,17.52,2.16,33.84,6.72,33.84,26.76,0,18.71-16.56,26.75-35.28,26.75-17.16,0-30.36-5.28-36.6-20.64l13.2-6.84c3.72,9.24,13.44,13.32,23.64,13.32,10,0,19.32-3.48,19.32-12.59,0-7.92-8.28-11.17-19.44-12.37-17.16-2-33-6.59-33-25.43,0-17.28,17-24.36,32.52-24.48,13.08,0,26.64,3.72,33,16.68Z"/><path class="cls-2" d="M359.83,109c1,7.32,7.32,12.6,17.64,12.6,5.4,0,12.48-2,15.84-5.52l9.36,9.24c-6.24,6.48-16.44,9.6-25.44,9.6-20.4,0-32.52-12.6-32.52-31.56,0-18,12.24-30.95,31.44-30.95C396,72.37,408.31,84.61,406,109ZM392,96.85c-1-7.68-7-11.52-15.36-11.52-7.92,0-14.4,3.84-16.56,11.52Z"/><path class="cls-2" d="M463.87,133.32v-31c0-9-4.92-15.83-14.28-15.83-9,0-15.12,7.56-15.12,16.56v30.23H420V74.05H433l1,8c6-5.88,12-8.88,19.44-8.88,13.92,0,25.08,10.44,25.08,29v31.08Z"/><path class="cls-2" d="M532.75,89.89c-4.2-4-9-5.28-14.64-5.28-7,0-10.8,2.16-10.8,5.88s3.48,6,11,6.48c11.16.72,25.32,3.23,25.32,19,0,10.44-8.52,19.44-25.44,19.44-9.36,0-18.72-1.56-27.36-10.56l7.2-10.44c4.2,4.68,13.8,8.16,20.4,8.28,5.52.12,10.68-2.76,10.68-7.08,0-4.08-3.36-5.76-11.76-6.24-11.16-.84-24.48-4.92-24.48-18.35,0-13.68,14.16-18.48,25-18.48,9.24,0,16.2,1.8,23,7.8Z"/><path class="cls-2" d="M573,49.33v69.35h43.2v14.64h-59v-84Z"/><path class="cls-2" d="M688,103.81c0,17-11.64,30.83-30.84,30.83s-30.72-13.8-30.72-30.83S638.23,73,657.07,73,688,86.89,688,103.81Zm-46.92,0c0,9,5.4,17.39,16.08,17.39s16.08-8.4,16.08-17.39S667,86.29,657.19,86.29C646.63,86.29,641.11,94.93,641.11,103.81Z"/><path class="cls-2" d="M747.54,68.17l10.8,8.16-6.6,8.4c4.56,5.16,6.24,11,6.24,17.51,0,7.32-2.76,17.64-12.48,22.08,9.84,4.92,12.24,12,12.24,19.56,0,16.32-12.48,26.4-29.63,26.4s-30-10.44-30-26.4h14.52c0,7.68,7.08,12.72,15.48,12.72s15-4.56,15-12.72-7.68-11.88-15-11.88c-18.48,0-30-11.28-30-29.76s13.44-30,30-30c4.68,0,9.47.6,13.56,3.36Zm-34.91,34.07c0,10.32,7,16.44,15.48,16.44s15.35-6.24,15.35-16.44-7-16.67-15.35-16.67S712.63,91.93,712.63,102.24Z"/><path class="cls-2" d="M809,89.89c-4.2-4-9-5.28-14.64-5.28-7,0-10.8,2.16-10.8,5.88s3.48,6,11,6.48c11.16.72,25.32,3.23,25.32,19,0,10.44-8.52,19.44-25.44,19.44-9.36,0-18.72-1.56-27.36-10.56l7.2-10.44c4.2,4.68,13.8,8.16,20.4,8.28,5.52.12,10.68-2.76,10.68-7.08,0-4.08-3.36-5.76-11.76-6.24-11.16-.84-24.48-4.92-24.48-18.35,0-13.68,14.16-18.48,25-18.48,9.24,0,16.2,1.8,23,7.8Z"/><path class="cls-3" d="M175.77,66.59a60.52,60.52,0,0,0-32.64,9.51A61.2,61.2,0,0,0,24,94.72a50.54,50.54,0,0,0,26.55,93.54H175.77a60.84,60.84,0,0,0,0-121.67Z"/><path class="cls-2" d="M50.54,184.31A46.59,46.59,0,0,1,26.07,98.08l1.84-1.14,0-2.15A57.25,57.25,0,0,1,139.39,77.37L141,82.14l4.24-2.71a56.88,56.88,0,1,1,30.52,104.88Z"/><path class="cls-1" d="M145.16,70.33a64.62,64.62,0,0,1,30.61-7.69c1,0,2.07,0,3.09.08V34.79H108.09A65.17,65.17,0,0,1,145.16,70.33Z"/><path class="cls-1" d="M53.66,38.88V23.82a17,17,0,0,1,17-17h95.27a17,17,0,0,1,17,17V63.05a63,63,0,0,1,6.8,1.13V23.82A23.84,23.84,0,0,0,165.94,0H70.67A23.85,23.85,0,0,0,46.85,23.82V43.25A66.23,66.23,0,0,1,53.66,38.88Z"/><path class="cls-1" d="M53.66,38.88V23.82a17,17,0,0,1,17-17h95.27a17,17,0,0,1,17,17V63.05a63,63,0,0,1,6.8,1.13V23.82A23.84,23.84,0,0,0,165.94,0H70.67A23.85,23.85,0,0,0,46.85,23.82V43.25A66.23,66.23,0,0,1,53.66,38.88Z"/><path class="cls-1" d="M183,191.81v8.93a17,17,0,0,1-17,17H70.67a17,17,0,0,1-17-17v-8.52H50.54c-1.24,0-2.47-.06-3.69-.14v8.66a23.85,23.85,0,0,0,23.82,23.82h95.27a23.84,23.84,0,0,0,23.81-23.82V190.68A65.59,65.59,0,0,1,183,191.81Z"/><path class="cls-1" d="M183,191.81v8.93a17,17,0,0,1-17,17H70.67a17,17,0,0,1-17-17v-8.52H50.54c-1.24,0-2.47-.06-3.69-.14v8.66a23.85,23.85,0,0,0,23.82,23.82h95.27a23.84,23.84,0,0,0,23.81-23.82V190.68A65.59,65.59,0,0,1,183,191.81Z"/><path class="cls-1" d="M165.94,11.55H70.67A12.94,12.94,0,0,0,57.74,24.47v6.4H178.86v-6.4A12.94,12.94,0,0,0,165.94,11.55ZM117.59,24.36a2.77,2.77,0,1,1,2.76-2.77A2.77,2.77,0,0,1,117.59,24.36Z"/><path class="cls-1" d="M57.74,191.91V201A12.94,12.94,0,0,0,70.67,214h95.27A12.94,12.94,0,0,0,178.86,201v-9.12Zm60.56,17.94a6.91,6.91,0,1,1,6.91-6.91A6.92,6.92,0,0,1,118.3,209.85Z"/><polyline id="Analytics_Line" data-name="Analytics Line" class="cls-4" points="185.4 70.33 156.04 85.92 133.33 133.08 87.72 125.47 59.21 164.59 23.84 177.09"/><path id="Blue_Dot_Bottom" data-name="Blue Dot Bottom" class="cls-5" d="M71.7,164.59A12.49,12.49,0,1,1,59.21,152.1,12.49,12.49,0,0,1,71.7,164.59Z"/><path id="Blue_Dot_Up" data-name="Blue Dot Up" class="cls-6" d="M65.81,164.59a6.61,6.61,0,1,1-6.6-6.6A6.6,6.6,0,0,1,65.81,164.59Z"/><path id="Red_Dot_Bottom" data-name="Red Dot Bottom" class="cls-7" d="M100.21,125.48A12.49,12.49,0,1,1,87.72,113,12.49,12.49,0,0,1,100.21,125.48Z"/><path id="Red_Dot_Up" data-name="Red Dot Up" class="cls-8" d="M94.32,125.48a6.61,6.61,0,1,1-6.6-6.61A6.6,6.6,0,0,1,94.32,125.48Z"/><path id="Yellow_Dot_Bottom" data-name="Yellow Dot Bottom" class="cls-9" d="M145.82,133.08a12.49,12.49,0,1,1-12.49-12.48A12.49,12.49,0,0,1,145.82,133.08Z"/><path id="Yellow_Dot_Up" data-name="Yellow Dot Up" class="cls-10" d="M139.94,133.08a6.61,6.61,0,1,1-6.61-6.6A6.61,6.61,0,0,1,139.94,133.08Z"/><path id="Green_Dot_Bottom" data-name="Green Dot Bottom" class="cls-11" d="M168.53,85.92A12.49,12.49,0,1,1,156,73.43,12.49,12.49,0,0,1,168.53,85.92Z"/><path id="Green_Dot_Up" data-name="Green Dot Up" class="cls-12" d="M162.64,85.92a6.6,6.6,0,1,1-6.6-6.61A6.59,6.59,0,0,1,162.64,85.92Z"/><path class="cls-13" d="M186.48,99.28h-.09A24.75,24.75,0,0,0,161.64,124c0,21,24.75,59.06,24.75,59.06h.09s24.75-38,24.75-59.06A24.75,24.75,0,0,0,186.48,99.28Zm0,37.44A12.75,12.75,0,1,1,199.23,124,12.78,12.78,0,0,1,186.44,136.72Z"/><path class="cls-1" d="M186.44,115.19a8.79,8.79,0,1,0,8.82,8.79A8.82,8.82,0,0,0,186.44,115.19Z"/></g></g></svg>