<svg xmlns="http://www.w3.org/2000/svg" viewBox="0 0 562.43 145.35"><defs><style>.cls-1{fill:#fff;}.cls-2{fill:#00aeea;}</style></defs><g id="Calque_2" data-name="Calque 2"><g id="Ebene_1" data-name="Ebene 1"><path class="cls-1" d="M4.62,144.43v-37.8h7.07v37.8Z"/><path class="cls-1" d="M45.61,144.43V130.5c0-4-2.22-7.13-6.43-7.13-4,0-6.8,3.41-6.8,7.46v13.6H25.84V117.76h5.89l.43,3.62c2.7-2.65,5.4-4,8.75-4,6.26,0,11.28,4.7,11.28,13.07v14Z"/><path class="cls-1" d="M94.26,110.31v7.56h7.34v5.67H94.21V135c0,2.54,1.4,3.78,3.45,3.78a7.61,7.61,0,0,0,3.19-.81l1.83,5.61a14.73,14.73,0,0,1-5.45,1.14c-5.78.21-9.56-3.08-9.56-9.72v-11.5h-5v-5.67h5V111Z"/><path class="cls-1" d="M121.2,106.63v14.8a9.85,9.85,0,0,1,8.32-4c7.56,0,10.91,5.13,10.91,13v14h-6.59v-14c0-4.86-2.54-6.91-6-6.91-3.89,0-6.59,3.29-6.59,7.29v13.6h-6.58v-37.8Z"/><path class="cls-1" d="M159.71,133.47c.43,3.3,3.29,5.67,7.93,5.67,2.43,0,5.62-.92,7.13-2.48l4.21,4.16c-2.8,2.91-7.39,4.32-11.44,4.32-9.18,0-14.64-5.67-14.64-14.21,0-8.1,5.51-13.93,14.15-13.93,8.91,0,14.47,5.51,13.45,16.47ZM174.18,128c-.43-3.46-3.13-5.19-6.91-5.19-3.57,0-6.48,1.73-7.46,5.19Z"/><path class="cls-1" d="M246.48,139.68a19.89,19.89,0,0,1-14.36,5.62c-14,0-20-9.67-20-19.5s6.38-19.92,20-19.92A19.49,19.49,0,0,1,246,111.66l-4.75,4.59a13,13,0,0,0-9.13-3.57c-9.13,0-13.07,6.81-13,13.12s3.67,12.8,13,12.8a13.92,13.92,0,0,0,9.5-3.83Z"/><path class="cls-1" d="M264.09,106.69v37.74h-6.54V106.69Z"/><path class="cls-1" d="M304.42,131.15c0,7.67-5.23,13.88-13.87,13.88s-13.83-6.21-13.83-13.88,5.29-13.88,13.77-13.88S304.42,123.54,304.42,131.15Zm-21.11,0c0,4,2.43,7.83,7.24,7.83s7.23-3.78,7.23-7.83-2.81-7.88-7.23-7.88C285.79,123.27,283.31,127.15,283.31,131.15Z"/><path class="cls-1" d="M323.81,117.81v13.93c0,4,2.21,7.13,6.43,7.13,4.05,0,6.8-3.4,6.8-7.45V117.81h6.54v26.68h-5.89l-.43-3.62c-2.76,2.7-5.3,4-9,4-6.37,0-11-4.81-11-13.07v-14Z"/><path class="cls-1" d="M385.15,106.69v37.74H379l-.43-3.67C376.51,144,373.22,145,370,145c-7.83,0-13.72-5.19-13.72-13.93,0-9.18,5.78-13.94,13.56-13.94,2.81,0,7.18,1.52,8.75,4.27V106.69Zm-22.3,24.41a7.64,7.64,0,1,0,15.28,0,7.59,7.59,0,0,0-7.72-7.78A7.35,7.35,0,0,0,362.85,131.1Z"/><path class="cls-1" d="M416.37,124.89a9,9,0,0,0-6.59-2.38c-3.13,0-4.86,1-4.86,2.65s1.56,2.7,5,2.91c5,.33,11.39,1.46,11.39,8.53,0,4.7-3.83,8.75-11.45,8.75-4.21,0-8.42-.7-12.31-4.75l3.24-4.7c1.89,2.11,6.21,3.67,9.18,3.73,2.48.05,4.81-1.24,4.81-3.19s-1.52-2.59-5.3-2.81c-5-.37-11-2.21-11-8.26s6.37-8.31,11.23-8.31c4.16,0,7.29.81,10.37,3.51Z"/><path class="cls-2" d="M56.64,23.16c-2.88-4.8-10.8-9.36-19.92-9.36C25,13.8,19.32,18.72,19.32,25c0,7.32,8.64,9.36,18.72,10.56,17.52,2.16,33.84,6.72,33.84,26.76C71.88,81,55.32,89,36.6,89,19.44,89,6.24,83.76,0,68.4l13.2-6.84c3.72,9.24,13.44,13.32,23.64,13.32,10,0,19.32-3.48,19.32-12.6,0-7.92-8.28-11.16-19.44-12.36-17.16-2-33-6.6-33-25.44C3.72,7.2,20.76.12,36.24,0c13.08,0,26.64,3.72,33,16.68Z"/><path class="cls-2" d="M102.36,62.52c1,7.32,7.32,12.6,17.64,12.6,5.4,0,12.48-2,15.84-5.52l9.36,9.24c-6.24,6.48-16.44,9.6-25.44,9.6-20.4,0-32.52-12.6-32.52-31.56,0-18,12.24-31,31.44-31,19.8,0,32.16,12.24,29.88,36.6ZM134.52,50.4c-1-7.68-7-11.52-15.36-11.52-7.92,0-14.4,3.84-16.56,11.52Z"/><path class="cls-2" d="M206.4,86.88v-31c0-9-4.92-15.84-14.28-15.84-9,0-15.12,7.56-15.12,16.56V86.88H162.48V27.6h13.08l1,8c6-5.88,12-8.88,19.44-8.88,13.92,0,25.08,10.44,25.08,29V86.88Z"/><path class="cls-2" d="M275.28,43.44c-4.2-4-9-5.28-14.64-5.28-7,0-10.8,2.16-10.8,5.88s3.48,6,11,6.48c11.16.72,25.32,3.24,25.32,19,0,10.44-8.52,19.44-25.44,19.44-9.36,0-18.72-1.56-27.36-10.56l7.2-10.44c4.2,4.68,13.8,8.16,20.4,8.28,5.52.12,10.68-2.76,10.68-7.08,0-4.08-3.36-5.76-11.76-6.24C248.76,62,235.44,58,235.44,44.52c0-13.68,14.16-18.48,25-18.48,9.24,0,16.2,1.8,23,7.8Z"/><path class="cls-2" d="M315.48,2.88V72.24h43.19V86.88h-59v-84Z"/><path class="cls-2" d="M430.55,57.36c0,17-11.63,30.84-30.83,30.84S369,74.4,369,57.36s11.76-30.84,30.6-30.84S430.55,40.44,430.55,57.36Zm-46.91,0c0,9,5.4,17.4,16.08,17.4s16.07-8.4,16.07-17.4-6.23-17.52-16.07-17.52C389.16,39.84,383.64,48.48,383.64,57.36Z"/><path class="cls-2" d="M490.07,21.72l10.8,8.16-6.6,8.4c4.56,5.16,6.24,11,6.24,17.52,0,7.32-2.76,17.64-12.48,22.08,9.84,4.92,12.24,12,12.24,19.56,0,16.32-12.48,26.4-29.64,26.4s-30-10.44-30-26.4h14.52c0,7.68,7.08,12.72,15.47,12.72s15-4.56,15-12.72-7.68-11.88-15-11.88c-18.47,0-30-11.28-30-29.76s13.44-30,30-30c4.68,0,9.48.6,13.56,3.36ZM455.16,55.8c0,10.32,7,16.44,15.47,16.44S486,66,486,55.8s-7-16.68-15.36-16.68S455.16,45.48,455.16,55.8Z"/><path class="cls-2" d="M551.51,43.44c-4.2-4-9-5.28-14.64-5.28-7,0-10.8,2.16-10.8,5.88s3.48,6,11,6.48c11.16.72,25.32,3.24,25.32,19,0,10.44-8.52,19.44-25.44,19.44-9.36,0-18.72-1.56-27.36-10.56l7.2-10.44c4.2,4.68,13.8,8.16,20.4,8.28,5.52.12,10.68-2.76,10.68-7.08,0-4.08-3.36-5.76-11.76-6.24C525,62,511.67,58,511.67,44.52c0-13.68,14.16-18.48,25-18.48,9.24,0,16.2,1.8,23,7.8Z"/></g></g></svg>