<?xml version="1.0" standalone="no"?>
<!DOCTYPE svg PUBLIC "-//W3C//DTD SVG 20010904//EN"
 "http://www.w3.org/TR/2001/REC-SVG-20010904/DTD/svg10.dtd">
<svg version="1.0" xmlns="http://www.w3.org/2000/svg"
 width="948.000000pt" height="948.000000pt" viewBox="0 0 948.000000 948.000000"
 preserveAspectRatio="xMidYMid meet">
<metadata>
Created by potrace 1.14, written by Peter Selinger 2001-2017
</metadata>
<g transform="translate(0.000000,948.000000) scale(0.100000,-0.100000)"
fill="#000000" stroke="none">
<path d="M2673 9229 c-75 -13 -220 -63 -289 -100 -195 -105 -351 -278 -439
-488 -19 -45 -33 -81 -30 -81 2 0 -1 -15 -6 -32 -15 -50 -19 -68 -25 -128 -6
-54 -12 -890 -6 -890 6 0 117 76 120 83 2 4 7 7 12 7 8 0 120 66 132 78 5 5 9
158 9 341 1 342 9 427 47 511 8 19 16 37 16 40 1 3 17 32 35 65 54 95 170 203
271 252 171 84 -32 77 2200 77 1092 1 2006 -2 2032 -6 47 -7 179 -48 188 -58
3 -4 20 -12 38 -19 17 -8 32 -17 32 -22 0 -5 7 -9 15 -9 22 0 176 -158 201
-205 11 -22 25 -49 31 -60 18 -34 31 -68 50 -125 15 -50 17 -129 19 -899 2
-464 4 -845 6 -846 3 -3 29 -7 123 -21 28 -3 59 -9 70 -11 11 -3 27 -6 35 -7
9 -1 20 -5 27 -9 6 -4 12 1 15 11 6 28 1 1673 -5 1724 -7 49 -25 132 -34 158
-3 8 -8 23 -10 33 -6 32 -65 149 -110 220 -71 112 -220 248 -343 315 -41 23
-171 74 -199 78 -14 3 -33 7 -41 11 -8 3 -24 8 -35 11 -35 9 -4098 10 -4152 1z"/>
<path d="M2777 8774 c-1 -1 -18 -5 -37 -8 -68 -11 -79 -15 -144 -48 -146 -77
-250 -218 -274 -373 -5 -28 -8 -115 -8 -195 l1 -145 2425 0 2425 0 -1 155 c0
151 -4 194 -23 255 -16 51 -52 125 -61 125 -5 0 -11 9 -15 19 -17 55 -178 172
-270 196 -16 5 -37 10 -45 13 -14 4 -3968 11 -3973 6z m1988 -306 c81 -43 70
-164 -17 -197 -52 -19 -118 10 -136 60 -9 24 -10 96 -1 102 2 2 18 14 35 28
36 29 73 31 119 7z"/>
<path d="M3387 7854 c-1 -1 -51 -4 -112 -7 -60 -3 -110 -6 -110 -7 0 -1 -13
-3 -30 -4 -105 -10 -336 -55 -395 -78 -14 -5 -36 -12 -49 -14 -13 -3 -50 -15
-82 -29 -32 -13 -72 -26 -88 -30 -17 -4 -33 -11 -36 -16 -4 -5 -15 -9 -26 -9
-10 0 -19 -4 -19 -10 0 -5 -3 -9 -7 -8 -10 3 -57 -13 -63 -21 -3 -3 -44 -25
-91 -48 -136 -68 -350 -212 -464 -312 -45 -40 -252 -248 -275 -277 -8 -11 -38
-48 -65 -84 -28 -35 -54 -69 -58 -75 -22 -28 -103 -158 -135 -215 -19 -36 -42
-73 -50 -82 -8 -10 -12 -18 -8 -18 4 0 0 -10 -8 -22 -9 -12 -16 -30 -16 -40 0
-10 -4 -18 -10 -18 -5 0 -10 -4 -10 -10 0 -5 -11 -34 -25 -65 -26 -57 -100
-270 -109 -315 -3 -14 -12 -54 -21 -90 -9 -36 -18 -76 -20 -90 -2 -14 -7 -38
-11 -55 -3 -16 -7 -48 -9 -70 -2 -22 -4 -40 -5 -40 -3 0 -8 -56 -13 -156 -2
-48 -8 -92 -11 -98 -4 -6 -21 -18 -38 -27 -37 -19 -189 -134 -238 -180 -77
-72 -107 -102 -150 -150 -75 -84 -94 -106 -145 -179 -27 -38 -53 -71 -57 -73
-5 -2 -8 -8 -8 -14 0 -5 -8 -22 -19 -36 -22 -32 -107 -196 -138 -267 -25 -57
-90 -248 -97 -285 -2 -14 -7 -32 -10 -40 -10 -26 -34 -163 -44 -250 -8 -74 -8
-370 1 -445 7 -62 22 -153 32 -192 3 -13 7 -32 10 -43 26 -121 109 -359 129
-372 6 -4 8 -8 4 -8 -8 0 97 -206 113 -220 3 -3 16 -23 29 -45 27 -45 141
-195 183 -240 81 -88 138 -145 143 -145 2 0 17 -12 33 -28 15 -15 45 -40 65
-57 21 -16 43 -35 49 -40 19 -17 178 -120 217 -141 19 -10 37 -21 40 -25 21
-23 352 -155 435 -174 11 -2 47 -11 80 -19 89 -21 161 -32 285 -43 117 -10
5232 -9 5350 1 123 11 155 14 155 16 0 1 9 3 20 4 76 10 120 18 125 21 4 2 17
6 31 8 13 3 53 13 89 22 36 9 70 18 75 19 17 4 89 27 110 36 11 5 52 21 90 35
75 29 262 118 335 161 147 86 341 234 465 354 65 62 155 158 155 165 0 2 12
17 26 32 119 127 307 440 383 638 13 33 30 74 37 92 8 17 17 46 20 65 4 18 10
38 14 43 8 11 56 199 65 255 3 19 10 58 16 86 5 28 9 55 8 60 -1 5 0 11 1 14
20 50 16 518 -5 647 -3 21 -8 54 -11 73 -8 58 -46 214 -55 226 -5 6 -7 13 -4
16 3 3 -2 25 -11 49 -9 24 -17 49 -18 54 -5 25 -39 121 -46 130 -4 6 -11 21
-15 35 -12 41 -110 240 -156 315 -45 75 -119 187 -128 195 -3 3 -26 32 -51 65
-107 142 -281 315 -435 432 -231 175 -511 320 -755 392 -41 13 -95 29 -120 36
-25 8 -61 16 -80 19 -19 2 -35 5 -35 6 0 3 -84 17 -150 26 -27 3 -72 10 -100
14 -52 9 -442 6 -485 -3 -14 -3 -47 -8 -73 -12 -27 -4 -58 -8 -70 -11 -12 -2
-38 -6 -59 -9 -21 -3 -71 -15 -111 -26 -95 -26 -108 -29 -137 -35 -13 -3 -30
-10 -36 -15 -7 -5 -16 -9 -20 -7 -5 1 -26 -6 -48 -15 -21 -9 -40 -17 -42 -17
-1 0 -15 -5 -31 -12 -15 -6 -30 -12 -33 -13 -3 -1 -18 -8 -35 -15 -16 -7 -32
-14 -35 -14 -13 -3 -192 -97 -245 -129 l-60 -37 -11 33 c-10 26 -24 62 -40 97
-1 3 -5 16 -10 30 -19 62 -185 370 -209 390 -8 7 -15 17 -15 22 0 9 -99 144
-165 223 -53 64 -196 208 -269 270 -32 28 -63 55 -69 60 -7 6 -28 22 -47 35
-19 13 -37 27 -40 31 -3 4 -48 34 -100 67 -52 34 -99 65 -105 69 -15 13 -250
127 -320 156 -119 49 -349 118 -444 133 -18 3 -43 8 -55 11 -11 2 -38 6 -58 9
-21 2 -57 6 -80 9 -66 8 -307 23 -311 19z"/>
<path d="M4353 7836 c-4 -5 -1 -6 5 -2 7 4 12 3 12 -2 0 -5 6 -9 13 -9 15 0
275 -120 287 -133 3 -3 25 -16 50 -29 25 -13 59 -33 75 -45 17 -12 42 -28 58
-35 15 -8 27 -18 27 -23 0 -4 4 -8 10 -8 8 0 103 -67 147 -105 7 -5 18 -14 25
-20 45 -35 169 -148 218 -199 108 -114 133 -143 216 -253 89 -119 87 -116 103
-144 8 -13 31 -51 51 -84 49 -80 117 -208 144 -272 l21 -51 78 38 c73 36 270
120 292 124 5 1 55 16 110 34 55 17 111 33 125 36 14 3 36 8 50 11 14 3 36 8
50 11 14 2 48 9 75 14 53 10 113 19 180 27 31 3 308 13 379 13 10 0 13 103 13
555 0 389 -4 555 -11 556 -57 7 -2799 2 -2803 -5z"/>
<path d="M7550 1590 c-19 -5 -51 -11 -70 -14 -19 -3 -46 -8 -60 -12 -14 -3
-37 -5 -52 -5 -15 1 -29 -3 -32 -7 -3 -5 -6 -108 -6 -228 -1 -209 -11 -298
-38 -359 -60 -130 -82 -165 -152 -235 -77 -77 -115 -110 -128 -110 -4 0 -18
-9 -32 -20 -14 -11 -33 -20 -42 -20 -10 0 -18 -4 -18 -8 0 -5 -42 -19 -92 -33
l-93 -24 -1990 0 c-1928 0 -1992 1 -2070 19 -44 11 -83 24 -87 30 -4 6 -8 7
-8 3 0 -10 -115 51 -151 80 -53 42 -139 129 -139 140 0 7 -4 13 -9 13 -16 0
-91 162 -110 239 -14 56 -18 115 -19 240 -1 91 -1 187 -2 212 l0 47 -138 1
-138 1 2 -218 c1 -235 14 -332 59 -455 29 -80 102 -217 116 -217 5 0 9 -7 9
-15 0 -16 193 -215 209 -215 5 0 16 -6 23 -12 53 -49 215 -118 363 -155 48
-12 4048 -15 4125 -3 127 20 173 34 275 80 130 61 296 198 373 311 36 54 105
183 116 219 5 14 10 30 12 35 2 6 5 17 6 25 2 8 7 21 11 28 5 6 6 12 3 12 -2
0 -1 14 4 30 18 63 23 142 24 369 1 149 -3 235 -9 237 -5 1 -26 -2 -45 -6z"/>
<path d="M2315 1332 c2 -250 5 -272 50 -367 47 -100 99 -160 186 -217 29 -18
54 -33 58 -33 3 0 11 -4 18 -8 7 -4 34 -15 60 -24 44 -15 234 -16 2037 -18
2041 -2 2019 -2 2106 32 8 4 17 7 20 7 16 3 120 70 145 93 65 61 154 201 138
217 -4 3 0 6 7 6 7 0 11 2 8 6 -3 3 -1 22 4 42 6 20 11 137 12 260 l3 222
-2427 0 -2426 0 1 -218z m2551 20 c22 -11 53 -35 71 -54 38 -40 77 -113 68
-128 -3 -5 -2 -10 3 -10 5 0 8 -26 7 -58 -6 -151 -115 -262 -264 -268 -244
-11 -378 274 -214 456 42 46 113 85 173 92 41 5 115 -9 156 -30z"/>
</g>
</svg>
